<?xml version="1.0" encoding="utf-8"?>
<!-- Generator: Adobe Illustrator 19.0.0, SVG Export Plug-In . SVG Version: 6.00 Build 0)  -->
<svg version="1.1" id="图层_1" xmlns="http://www.w3.org/2000/svg" xmlns:xlink="http://www.w3.org/1999/xlink" x="0px" y="0px"
	 viewBox="0 0 191.2 86.4" enable-background="new 0 0 191.2 86.4" xml:space="preserve">
<g id="XMLID_2_">
	<path id="XMLID_9_" fill="#E0516C" d="M140.7,16.1l-17.4,45.8h4.7l4.9-13.5h19.6l5,13.5h4.7L145,16.1H140.7z M134.4,44.4l7.4-20.4
		c0.1-0.4,0.3-0.9,0.5-1.4c0.2-0.5,0.3-1.1,0.4-1.8h0.1c0.1,0.7,0.2,1.3,0.4,1.8c0.2,0.5,0.3,1,0.5,1.4l7.5,20.4H134.4z"/>
	<polygon id="XMLID_8_" fill="#E0516C" points="160.5,16.1 160.5,20 173.7,20 173.7,61.8 177.9,61.8 177.9,20 191.2,20 191.2,16.1 	
		"/>
	<path id="XMLID_7_" fill="#E0516C" d="M111.8,36.6h-25V16.1h-4.2l0.2,29l-0.3,2.6c-0.5,4.3-1.7,8.4-3.4,12.2c0,0.1-0.1,0.2-0.1,0.3
		c-0.2,0.3-0.3,0.7-0.5,1c0,0,0,0.1-0.1,0.1c-2.8,5.4-6.7,10-11.5,13.7c-1.1,0.8-2.2,1.5-3.3,2.2c-0.1,0-0.1,0.1-0.2,0.1
		c-0.3,0.2-0.6,0.3-0.8,0.5c-0.1,0.1-0.3,0.1-0.4,0.2c-0.2,0.1-0.4,0.2-0.7,0.4c-0.2,0.1-0.4,0.2-0.6,0.3c-0.2,0.1-0.3,0.2-0.5,0.2
		c-0.3,0.1-0.5,0.3-0.8,0.4c-0.1,0.1-0.2,0.1-0.4,0.2c-0.3,0.1-0.6,0.3-1,0.4c-0.1,0-0.2,0.1-0.3,0.1c-0.4,0.1-0.7,0.3-1.1,0.4
		c-0.1,0-0.1,0-0.2,0.1c-0.4,0.1-0.8,0.3-1.2,0.4c-0.1,0-0.3,0.1-0.4,0.1c-0.4,0.1-0.8,0.2-1.2,0.4c-0.2,0-0.3,0.1-0.5,0.1
		c-0.2,0.1-0.4,0.1-0.6,0.2c-0.2,0.1-0.4,0.1-0.6,0.2c-0.2,0-0.4,0.1-0.6,0.1c-0.3,0.1-0.7,0.1-1,0.2c-0.1,0-0.3,0.1-0.4,0.1
		c-0.3,0.1-0.6,0.1-0.9,0.2c-0.1,0-0.2,0-0.3,0c-0.4,0.1-0.8,0.1-1.3,0.2c-0.1,0-0.1,0-0.2,0c-0.4,0-0.8,0.1-1.1,0.1
		c-0.1,0-0.2,0-0.2,0c-0.4,0-0.9,0.1-1.3,0.1c0,0-0.1,0-0.1,0c-0.4,0-0.8,0-1.1,0c-0.1,0-0.3,0-0.4,0c-0.1,0-0.3,0-0.4,0
		c-0.2,0-0.5,0-0.7,0c0,0-0.1,0-0.1,0c-8.6-0.3-16.8-3.4-23.4-8.7c-0.1-0.1-0.2-0.2-0.3-0.3c0,0-0.1-0.1-0.1-0.1
		c-4.3-3.6-7.9-8.1-10.4-13.2c0-0.1-0.1-0.1-0.1-0.2c-0.1-0.1-0.1-0.2-0.2-0.4c-0.1-0.2-0.2-0.4-0.3-0.6c0,0,0,0,0,0
		c-0.5-1.2-1-2.5-1.5-3.8c-0.8-2.5-1.4-5.1-1.7-7.7c0-0.1,0-0.1,0-0.2c0-0.2-0.1-0.5-0.1-0.7c0-0.1,0-0.2,0-0.3c0-0.2,0-0.4,0-0.6
		c0-0.2,0-0.3,0-0.5c0-0.2,0-0.3,0-0.5c0-0.2,0-0.4,0-0.6c0-0.1,0-0.3,0-0.4c0-0.2,0-0.4,0-0.6c0-0.2,0-0.3,0-0.5c0-0.1,0-0.3,0-0.4
		c0-0.2,0-0.4,0-0.6c0,0,0-0.1,0-0.1c0.3-7.9,2.9-15.5,7.4-21.8c0.1-0.1,0.1-0.2,0.2-0.2c0.1-0.1,0.2-0.2,0.2-0.3
		C15.9,13.6,22,9,29,6.3c0.1,0,0.2-0.1,0.2-0.1c0.1-0.1,0.3-0.1,0.4-0.2C29.8,6,30,5.9,30.2,5.8c3.9-1.4,8-2.1,12.4-2.2V0
		c-4.7,0.1-9.2,0.9-13.4,2.4l0,0c0,0,0,0-0.1,0c-0.2,0.1-0.4,0.1-0.6,0.2c-0.2,0.1-0.3,0.1-0.5,0.2c-0.1,0-0.2,0.1-0.3,0.1
		c-7.9,3-14.4,8.1-19.1,14.5c-0.1,0.1-0.2,0.2-0.2,0.3c-0.1,0.1-0.1,0.2-0.2,0.3C3.3,24.7,0.3,32.9,0,41.7c0,0.1,0,0.1,0,0.2
		c0,0.2,0,0.4,0,0.6c0,0.2,0,0.3,0,0.5c0,0,0,0.1,0,0.1c0,0.1,0,0.2,0,0.3c0,0.2,0,0.4,0,0.6c0,0.1,0,0.3,0,0.4c0,0.2,0,0.4,0,0.6
		c0,0.2,0,0.3,0,0.5c0,0.2,0,0.4,0,0.5c0,0.2,0,0.4,0,0.6c0,0.1,0,0.3,0,0.4c0,0.3,0.1,0.5,0.1,0.8c0,0.1,0,0.1,0,0.2
		c0.5,4.4,1.7,8.6,3.4,12.4c0,0,0,0,0,0.1C3.8,61,3.9,61.2,4,61.4c0.1,0.2,0.1,0.3,0.2,0.5c0,0,0,0.1,0.1,0.1
		c2.8,5.7,6.7,10.6,11.4,14.5c0,0,0,0,0,0c0.2,0.1,0.3,0.3,0.5,0.4c0.2,0.1,0.3,0.2,0.5,0.4c0,0,0,0,0.1,0
		c6.9,5.4,15.5,8.7,24.9,9.1c0.1,0,0.1,0,0.2,0c0.2,0,0.5,0,0.7,0c0.2,0,0.3,0,0.5,0c0.1,0,0.1,0,0.2,0c0.1,0,0.1,0,0.2,0
		c0.4,0,0.9,0,1.3,0c0,0,0.1,0,0.1,0c0.5,0,1,0,1.4-0.1c0.1,0,0.2,0,0.3,0c0.4,0,0.8-0.1,1.2-0.1c0.1,0,0.2,0,0.3,0
		c0.4,0,0.9-0.1,1.3-0.2c0.2,0,0.3-0.1,0.5-0.1c0.3,0,0.5-0.1,0.8-0.1c0.2,0,0.5-0.1,0.7-0.1c0.1,0,0.3-0.1,0.4-0.1
		c0.6-0.1,1.1-0.2,1.7-0.4c0.1,0,0.1,0,0.2,0c2.3-0.6,4.5-1.3,6.6-2.2c10.2-4.3,18.3-12.1,22.7-21.9c0,0,1.9-3.3,2.8-8.2
		c1-4.9,1-6.9,1-6.9l0.2-5.6h25v21.4h4.2V16.1h-4.2V36.6z"/>
	<path id="XMLID_4_" fill="#E0516C" d="M30.8,41.3c0,7.8,6.4,14.2,14.2,14.2s14.2-6.4,14.2-14.2S52.8,27.1,45,27.1
		S30.8,33.5,30.8,41.3z M45,29.4c6.6,0,12,5.4,12,12s-5.4,12-12,12s-12-5.4-12-12S38.4,29.4,45,29.4z"/>
	<path id="XMLID_3_" fill="#E0516C" d="M44.5,42.9l6.2,2.1c0.4,0.2,0.8,0,1-0.4c0.2-0.4,0-0.8-0.4-1l-5.7-1.9v-8.1
		c0-0.4-0.3-0.8-0.8-0.8c-0.4,0-0.8,0.3-0.8,0.8v8.5c0,0,0,0.1,0,0.1C44.1,42.5,44.2,42.8,44.5,42.9z"/>
</g>
</svg>
